<svg width="24" height="24" viewBox="0 0 24 24" fill="none" xmlns="http://www.w3.org/2000/svg">
<path fill-rule="evenodd" clip-rule="evenodd" d="M0.890402 14.949C0.282652 13.6457 0.217652 12.1529 0.709485 10.8009C1.20132 9.44889 2.21099 8.34714 3.51532 7.73939L7.55399 5.85547C8.2614 5.52614 8.91032 5.08414 9.4769 4.54789L13.2415 0.983724C13.5654 0.67714 14.0172 0.54389 14.4559 0.627307C14.8947 0.711807 15.2662 1.00106 15.4558 1.40514L20.6277 12.4974C20.8162 12.9026 20.7988 13.3738 20.5811 13.7627C20.3633 14.1527 19.9712 14.4138 19.5281 14.4647L14.3779 15.0573C13.6022 15.1472 12.8472 15.3606 12.1397 15.69L8.10107 17.5739C5.38515 18.8403 2.15682 17.6649 0.890402 14.949ZM22.1877 4.12214C22.595 3.93256 23.0782 4.10806 23.2677 4.51431C23.4573 4.92056 23.2807 5.40481 22.8745 5.59439L21.3069 6.32564C20.9007 6.51522 20.4164 6.33864 20.2268 5.93239C20.0372 5.52614 20.2138 5.04189 20.6201 4.85231L22.1877 4.12214ZM18.3938 3.06806C18.1696 3.45697 17.6723 3.59022 17.2834 3.36597C16.8956 3.14172 16.7623 2.64447 16.9866 2.25556L17.8511 0.757307C18.0753 0.369474 18.5726 0.236224 18.9615 0.460474C19.3493 0.684724 19.4826 1.18197 19.2583 1.56981L18.3938 3.06806ZM20.9602 10.7781C20.5193 10.7012 20.2236 10.2787 20.3016 9.83781C20.3796 9.39581 20.801 9.10006 21.243 9.17806L22.946 9.47922C23.388 9.55614 23.6837 9.97864 23.6057 10.4196C23.5277 10.8616 23.1063 11.1573 22.6643 11.0793L20.9602 10.7781ZM11.6468 17.1156L12.4756 18.8934C12.507 18.9606 12.5438 19.0256 12.5861 19.0873L14.47 21.8314C14.6271 22.0611 14.6563 22.3557 14.5469 22.6114C14.4364 22.8671 14.2024 23.0491 13.9272 23.0935L10.5895 23.6254C9.75315 23.7586 8.92982 23.321 8.57232 22.554L6.94624 19.0667C7.49115 18.9692 8.03282 18.8002 8.55824 18.5554L11.6468 17.1156Z" fill="white" style="fill:white;fill-opacity:1;"/>
</svg>
