<svg width="40" height="40" viewBox="0 0 40 40" fill="none" xmlns="http://www.w3.org/2000/svg">
<g filter="url(#filter0_b_69_1442)">
<circle cx="20" cy="20" r="20" fill="white" fill-opacity="0.1" style="fill:white;fill-opacity:0.1;"/>
<circle cx="20" cy="20" r="19.5741" stroke="white" stroke-opacity="0.45" style="stroke:white;stroke-opacity:0.45;" stroke-width="0.851852"/>
</g>
<path d="M21.0445 20L25.7112 15.3407C25.8506 15.2013 25.929 15.0121 25.929 14.8148C25.929 14.6176 25.8506 14.4284 25.7112 14.2889C25.5717 14.1494 25.3825 14.071 25.1852 14.071C24.988 14.071 24.7988 14.1494 24.6593 14.2889L20 18.9556L15.3408 14.2889C15.2013 14.1494 15.0121 14.071 14.8149 14.071C14.6176 14.071 14.4284 14.1494 14.2889 14.2889C14.1494 14.4284 14.0711 14.6176 14.0711 14.8148C14.0711 15.0121 14.1494 15.2013 14.2889 15.3407L18.9556 20L14.2889 24.6593C14.2195 24.7281 14.1644 24.81 14.1268 24.9003C14.0892 24.9906 14.0698 25.0874 14.0698 25.1852C14.0698 25.283 14.0892 25.3798 14.1268 25.4701C14.1644 25.5603 14.2195 25.6423 14.2889 25.7111C14.3578 25.7805 14.4397 25.8356 14.53 25.8733C14.6203 25.9109 14.7171 25.9302 14.8149 25.9302C14.9126 25.9302 15.0095 25.9109 15.0997 25.8733C15.19 25.8356 15.2719 25.7805 15.3408 25.7111L20 21.0444L24.6593 25.7111C24.7282 25.7805 24.8101 25.8356 24.9004 25.8733C24.9906 25.9109 25.0874 25.9302 25.1852 25.9302C25.283 25.9302 25.3798 25.9109 25.4701 25.8733C25.5604 25.8356 25.6423 25.7805 25.7112 25.7111C25.7806 25.6423 25.8357 25.5603 25.8733 25.4701C25.9109 25.3798 25.9303 25.283 25.9303 25.1852C25.9303 25.0874 25.9109 24.9906 25.8733 24.9003C25.8357 24.81 25.7806 24.7281 25.7112 24.6593L21.0445 20Z" fill="white" style="fill:white;fill-opacity:1;"/>
<defs>
<filter id="filter0_b_69_1442" x="-5.11111" y="-5.11111" width="50.2222" height="50.2222" filterUnits="userSpaceOnUse" color-interpolation-filters="sRGB">
<feFlood flood-opacity="0" result="BackgroundImageFix"/>
<feGaussianBlur in="BackgroundImageFix" stdDeviation="2.55556"/>
<feComposite in2="SourceAlpha" operator="in" result="effect1_backgroundBlur_69_1442"/>
<feBlend mode="normal" in="SourceGraphic" in2="effect1_backgroundBlur_69_1442" result="shape"/>
</filter>
</defs>
</svg>
