<svg xmlns="http://www.w3.org/2000/svg" viewBox="0 0 24 24" id="color"><path fill="#303c42" d="M21.5 9.5c-1.4 0-2.5 1.1-2.5 2.5s-1.1 2.5-2.5 2.5S14 13.4 14 12c.2-.9.6-1.8 1.2-2.5C16 8.1 17 6.6 17 5c0-2.8-2.2-5-5-5C5.4 0 0 5.4 0 12s5.4 12 12 12 12-5.4 12-12c0-1.4-1.1-2.5-2.5-2.5zM12 3c1.1 0 2 .9 2 2s-.9 2-2 2-2-.9-2-2 .9-2 2-2zm-9 9c0-1.1.9-2 2-2s2 .9 2 2-.9 2-2 2-2-.9-2-2zm4 7c-1.1 0-2-.9-2-2s.9-2 2-2 2 .9 2 2-.9 2-2 2zM7 9c-1.1 0-2-.9-2-2s.9-2 2-2 2 .9 2 2-.9 2-2 2zm5 12c-1.1 0-2-.9-2-2s.9-2 2-2 2 .9 2 2-.9 2-2 2z"></path></svg>