<svg width="25" height="24" viewBox="0 0 25 24" fill="none" xmlns="http://www.w3.org/2000/svg">
<circle cx="12.5" cy="12" r="12" fill="#E8543F"/>
<path d="M14.7868 7.81781L14.7869 7.81764C15.1394 7.24553 15.96 7.02358 16.6194 7.35372C17.2676 7.67833 17.4807 8.39403 17.1357 8.95261L17.1356 8.95266L13.2895 15.1826C13.0896 15.5066 12.7265 15.7344 12.3032 15.7877L12.3032 15.7877L12.3011 15.788C12.2405 15.7963 12.1782 15.8 12.1151 15.8C11.7568 15.8 11.4131 15.6723 11.1614 15.4452L11.1612 15.445L8.08436 12.6761C7.57188 12.2149 7.57188 11.477 8.08436 11.0159C8.60906 10.5437 9.46744 10.5437 9.99214 11.0159L11.6267 12.4868L11.8048 12.6471L11.9307 12.4432L14.7868 7.81781Z" fill="white" stroke="#E8543F" stroke-width="0.4"/>
</svg>
