<svg xmlns="http://www.w3.org/2000/svg" viewBox="0 0 64 64" id="flip"><path fill="#231f20" d="M24.9 30.49 7.32 15.11A1.998 1.998 0 0 0 4 16.61v30.78a1.986 1.986 0 0 0 1.17 1.82 2.082 2.082 0 0 0 .84.18 1.989 1.989 0 0 0 1.31-.5L24.9 33.5a1.994 1.994 0 0 0 0-3zm33.93-15.7a1.993 1.993 0 0 0-2.15.32L39.1 30.49v.01a1.98 1.98 0 0 0-.68 1.5 2.017 2.017 0 0 0 .68 1.51l17.58 15.38a1.989 1.989 0 0 0 1.31.5 2.082 2.082 0 0 0 .84-.18A1.986 1.986 0 0 0 60 47.39V16.61a1.987 1.987 0 0 0-1.17-1.82zM32 4a1 1 0 0 0-1 1v3.5a1 1 0 0 0 2 0V5a1 1 0 0 0-1-1zm0 37.071a1 1 0 0 0-1 1v6.714a1 1 0 0 0 2 0v-6.714a1 1 0 0 0-1-1zm0-13.428a1 1 0 0 0-1 1v6.713a1 1 0 0 0 2 0v-6.713a1 1 0 0 0-1-1zm0-13.43a1 1 0 0 0-1 1v6.715a1 1 0 0 0 2 0v-6.714a1 1 0 0 0-1-1zM32 54.5a1 1 0 0 0-1 1V59a1 1 0 0 0 2 0v-3.5a1 1 0 0 0-1-1z"></path></svg>