<svg width="22" height="22" viewBox="0 0 22 22" fill="none" xmlns="http://www.w3.org/2000/svg">
<path d="M10.9892 0.166992C5.00919 0.166992 0.166687 5.02033 0.166687 11.0003C0.166687 16.9803 5.00919 21.8337 10.9892 21.8337C16.98 21.8337 21.8334 16.9803 21.8334 11.0003C21.8334 5.02033 16.98 0.166992 10.9892 0.166992ZM18.4967 6.66699H15.3009C14.9542 5.31283 14.4559 4.01283 13.8059 2.81033C15.7992 3.49283 17.4567 4.87949 18.4967 6.66699ZM11 2.37699C11.8992 3.67699 12.6034 5.11783 13.0692 6.66699H8.93085C9.39669 5.11783 10.1009 3.67699 11 2.37699ZM2.61502 13.167C2.44169 12.4737 2.33335 11.7478 2.33335 11.0003C2.33335 10.2528 2.44169 9.52699 2.61502 8.83366H6.27669C6.19002 9.54866 6.12502 10.2637 6.12502 11.0003C6.12502 11.737 6.19002 12.452 6.27669 13.167H2.61502ZM3.50335 15.3337H6.69919C7.04585 16.6878 7.54419 17.9878 8.19419 19.1903C6.20085 18.5078 4.54335 17.132 3.50335 15.3337ZM6.69919 6.66699H3.50335C4.54335 4.86866 6.20085 3.49283 8.19419 2.81033C7.54419 4.01283 7.04585 5.31283 6.69919 6.66699ZM11 19.6237C10.1009 18.3237 9.39669 16.8828 8.93085 15.3337H13.0692C12.6034 16.8828 11.8992 18.3237 11 19.6237ZM13.535 13.167H8.46502C8.36752 12.452 8.29169 11.737 8.29169 11.0003C8.29169 10.2637 8.36752 9.53782 8.46502 8.83366H13.535C13.6325 9.53782 13.7084 10.2637 13.7084 11.0003C13.7084 11.737 13.6325 12.452 13.535 13.167ZM13.8059 19.1903C14.4559 17.9878 14.9542 16.6878 15.3009 15.3337H18.4967C17.4567 17.1212 15.7992 18.5078 13.8059 19.1903ZM15.7234 13.167C15.81 12.452 15.875 11.737 15.875 11.0003C15.875 10.2637 15.81 9.54866 15.7234 8.83366H19.385C19.5584 9.52699 19.6667 10.2528 19.6667 11.0003C19.6667 11.7478 19.5584 12.4737 19.385 13.167H15.7234Z" fill="white" style="fill:white;fill-opacity:1;"/>
</svg>
