<svg xmlns="http://www.w3.org/2000/svg" enable-background="new 0 0 24 24" viewBox="0 0 24 24" id="magic"><g><path fill="#303c42" d="M12 6.5c0-.3-.2-.5-.5-.5-2 0-3-.2-3.7-.8S7 3.5 7 1.5c0-.3-.2-.5-.5-.5s-.5.2-.5.5c0 2-.2 3-.8 3.7S3.5 6 1.5 6c-.3 0-.5.2-.5.5s.2.5.5.5c2 0 3 .2 3.7.8s.8 1.7.8 3.7c0 .3.2.5.5.5s.5-.2.5-.5c0-2 .2-3 .8-3.7S9.5 7 11.5 7c.3 0 .5-.2.5-.5zM11.5 4c.7 0 1.1.1 1.3.3s.2.5.2 1.2c0 .3.2.5.5.5s.5-.2.5-.5c0-.7.1-1.1.3-1.3s.5-.2 1.2-.2c.3 0 .5-.2.5-.5s-.2-.5-.5-.5c-.7 0-1.1-.1-1.3-.3s-.2-.5-.2-1.2c0-.3-.2-.5-.5-.5s-.5.2-.5.5c0 .7-.1 1.1-.3 1.3s-.5.2-1.2.2c-.3 0-.5.2-.5.5s.2.5.5.5z"></path><path fill="#303c42" d="M14.2 11.4 11 8.2c-.1-.1-.2-.2-.4-.2-.7-.1-1.4.1-2 .5-.5.6-.7 1.4-.6 2.1 0 .1 0 .3.1.4l3.2 3.2c.2.2.5.2.7 0l2.1-2.1c.3-.2.3-.5.1-.7zM22.4 19.6l-6.8-6.8c-.2-.2-.5-.2-.7 0l-2.1 2.1c-.2.2-.2.5 0 .7l6.8 6.8c.8.8 2 .8 2.8 0s.8-2 0-2.8z"></path></g></svg>