<svg width="28" height="28" viewBox="0 0 28 28" fill="none" xmlns="http://www.w3.org/2000/svg">
<path d="M0.499999 14C0.5 21.45 6.55 27.5 14 27.5C21.45 27.5 27.5 21.45 27.5 14C27.5 6.55 21.45 0.499999 14 0.499999C6.55 0.5 0.499999 6.55 0.499999 14ZM16 20C16 21.1 15.1 22 14 22C12.9 22 12 21.1 12 20C12 18.9 12.9 18 14 18C15.1 18 16 18.9 16 20ZM16 14C16 15.1 15.1 16 14 16C12.9 16 12 15.1 12 14C12 12.9 12.9 12 14 12C15.1 12 16 12.9 16 14ZM16 8C16 9.1 15.1 10 14 10C12.9 10 12 9.1 12 8C12 6.9 12.9 6 14 6C15.1 6 16 6.9 16 8Z" fill="white" style="fill:white;fill-opacity:1;"/>
</svg>
