<svg width="16" height="12" viewBox="0 0 16 12" fill="none" xmlns="http://www.w3.org/2000/svg">
<path d="M14.462 9.93747L14.1734 11.189C14.1144 11.4444 13.8871 11.625 13.625 11.625H2.37499C2.11286 11.625 1.88561 11.4444 1.82655 11.189L1.53799 9.93747H14.462ZM15.8609 3.87653L14.7219 8.81247H1.27811L0.139051 3.87653C0.0889881 3.65885 0.172238 3.43159 0.351676 3.29828C0.531676 3.16497 0.772988 3.15091 0.966488 3.26172L4.4478 5.25128L7.53143 0.625845C7.63211 0.475095 7.79861 0.38172 7.97918 0.37497C8.16143 0.367095 8.33299 0.44922 8.4438 0.592095L12.0601 5.24172L15.0003 3.28197C15.1921 3.15485 15.4424 3.15597 15.632 3.28703C15.8221 3.41809 15.9121 3.6521 15.8609 3.87653Z" fill="white" style="fill:white;fill-opacity:1;"/>
</svg>
