<svg width="22" height="22" viewBox="0 0 22 22" fill="none" xmlns="http://www.w3.org/2000/svg">
<path d="M21.8333 8.94176C21.9417 8.4001 21.5083 7.7501 20.9667 7.7501L14.7917 6.88343L11.975 1.2501C11.8667 1.03343 11.7583 0.925096 11.5417 0.816763C11 0.491763 10.35 0.708429 10.025 1.2501L7.31666 6.88343L1.14166 7.7501C0.816657 7.7501 0.59999 7.85843 0.491657 8.0751C0.0583232 8.50843 0.0583232 9.15843 0.491657 9.59176L4.93332 13.9251L3.84999 20.1001C3.84999 20.3168 3.84999 20.5334 3.95832 20.7501C4.28332 21.2918 4.93332 21.5084 5.47499 21.1834L11 18.2584L16.525 21.1834C16.6333 21.2918 16.85 21.2918 17.0667 21.2918C17.175 21.2918 17.175 21.2918 17.2833 21.2918C17.825 21.1834 18.2583 20.6418 18.15 19.9918L17.0667 13.8168L21.5083 9.48343C21.725 9.3751 21.8333 9.15843 21.8333 8.94176Z" fill="white" style="fill:white;fill-opacity:1;"/>
</svg>
