<svg width="18" height="16" viewBox="0 0 18 16" fill="none" xmlns="http://www.w3.org/2000/svg">
<path d="M13.6832 6.07091C12.8798 3.70356 10.6389 2 8 2C4.68629 2 2 4.68629 2 8C2 11.3137 4.68629 14 8 14C9.56984 14 11.0421 13.3959 12.1524 12.331C12.551 11.9487 13.184 11.962 13.5663 12.3606C13.9486 12.7592 13.9353 13.3922 13.5367 13.7745C12.0577 15.193 10.091 16 8 16C3.58172 16 0 12.4183 0 8C0 3.58172 3.58172 0 8 0C11.3446 0 14.2098 2.05245 15.4049 4.96656L16.0884 3.56409C16.3477 3.07645 16.9532 2.89133 17.4408 3.15061C17.9284 3.40989 18.1136 4.01539 17.8543 4.50303L15.9325 8.44621C15.9229 8.46785 15.9124 8.48931 15.9011 8.51055C15.7715 8.75437 15.5553 8.92256 15.3106 8.99738C15.0658 9.07221 14.7925 9.05367 14.5487 8.92403C14.5163 8.90682 14.4853 8.88808 14.4557 8.86796L10.77 6.64736C10.2824 6.38808 10.0973 5.78258 10.3566 5.29495C10.6158 4.80731 11.2213 4.62219 11.709 4.88147L13.6832 6.07091Z" fill="white" style="fill:white;fill-opacity:1;"/>
</svg>
