<svg xmlns="http://www.w3.org/2000/svg" viewBox="0 0 32 32" id="reset"><g data-name="Layer 2"><path d="M27.19 12.52a1.35 1.35 0 0 0 1.24.94 1.35 1.35 0 0 0 1.26-.88l.85-2.26a1 1 0 0 0-1.88-.7l-.24.64a13.72 13.72 0 0 0-25.34 1.13 1 1 0 0 0 .68 1.32 1 1 0 0 0 1.18-.6 11.72 11.72 0 0 1 22.25.41zM2.23 19.35l-.86 2.44a1 1 0 1 0 1.88.67l.27-.75a13.63 13.63 0 0 0 12.48 8A13.81 13.81 0 0 0 29.13 20a1 1 0 0 0-.74-1.29 1 1 0 0 0-1.16.66A11.78 11.78 0 0 1 16 27.72a11.64 11.64 0 0 1-11.21-8.31 1.34 1.34 0 0 0-1.26-.95 1.32 1.32 0 0 0-1.3.89z"></path><path d="M11.46 14.59v2.82a4.54 4.54 0 0 0 9.08 0v-2.82a4.54 4.54 0 0 0-9.08 0Z"></path></g></svg>