<svg xmlns="http://www.w3.org/2000/svg" viewBox="0 0 64 64" id="zoom-in"><path d="M54.83041 28.01989v9.08017a24.84812 24.84812 0 01-5.46012 14.64027 5.43261 5.43261 0 00-1.17 3.40008v4.86006H30.84V53.86036c.05528-2.57372-1.84757-4.15462-3.78015-5.56006-2.57-1.70008-3.58-4.88012-4.47-7.71019A10.56643 10.56643 0 0017.50977 34.31l-1.96006-1.38a2.86211 2.86211 0 01-.8-3.89008 2.92606 2.92606 0 013.90009-.99c2.96 1.74 5.49009 3.36 7.51008 4.82009a1.00421 1.00421 0 001.59-.81V10.48963a2.65259 2.65259 0 014.49013-1.98992 2.57555 2.57555 0 01.77 1.85991V31.94a1.00021 1.00021 0 002-.00006V21.74983a2.64 2.64 0 015.28006 0V31.94a1.00012 1.00012 0 002 0V25.17988a2.63 2.63 0 015.26009 0V31.94a1 1 0 102 0V28.01989a2.61675 2.61675 0 01.77-1.86A2.65613 2.65613 0 0154.83041 28.01989zM11.362 25.31678l5.087-1.3633a1.0001 1.0001 0 00-.51765-1.93166l-2.75487.73834L16.15891 17.594a1.00018 1.00018 0 10-1.73245-1L11.44405 21.76l-.73835-2.75536a1.00009 1.00009 0 00-1.93165.51765l1.36279 5.08554A1.00733 1.00733 0 0011.362 25.31678zM17.447 7.32868l2.75566-.73835-2.9832 5.16616a1.00018 1.00018 0 101.73245 1L21.9352 7.59016l.73847 2.75566a1.00009 1.00009 0 001.93166-.51764l-1.3628-5.0856A1.00358 1.00358 0 0022.01631 4.034L16.92944 5.397A1.00009 1.00009 0 0017.447 7.32868z"></path></svg>